<?xml version="1.0" encoding="UTF-8" standalone="no"?><!DOCTYPE svg PUBLIC "-//W3C//DTD SVG 1.1//EN" "http://www.w3.org/Graphics/SVG/1.1/DTD/svg11.dtd"><svg width="100%" height="100%" viewBox="0 0 482 697" version="1.1" xmlns="http://www.w3.org/2000/svg" xmlns:xlink="http://www.w3.org/1999/xlink" xml:space="preserve" xmlns:serif="http://www.serif.com/" style="fill-rule:evenodd;clip-rule:evenodd;stroke-linejoin:round;stroke-miterlimit:2;"><rect id="Artboard1" x="-3.125" y="-3.125" width="485.724" height="702.136" style="fill:none;"/><clipPath id="_clip1"><rect x="-3.125" y="-3.125" width="485.724" height="702.136"/></clipPath><g clip-path="url(#_clip1)"><rect x="-3.125" y="-3.125" width="487.753" height="707.85" style="fill:url(#_Radial2);"/><circle cx="88.216" cy="464.08" r="54.559" style="fill:#fff;"/><path d="M88.216,403.271c33.562,0 60.809,27.248 60.809,60.809c0,33.561 -27.247,60.809 -60.809,60.809c-33.561,-0 -60.808,-27.248 -60.808,-60.809c-0,-33.561 27.247,-60.809 60.808,-60.809Zm0,6.25c-30.111,0 -54.558,24.447 -54.558,54.559c-0,30.112 24.447,54.559 54.558,54.559c30.112,-0 54.559,-24.447 54.559,-54.559c0,-30.112 -24.447,-54.559 -54.559,-54.559Z" style="fill:#fff;fill-opacity:0.25;"/><circle cx="240.967" cy="464.08" r="54.559" style="fill:#fff;"/><path d="M240.967,403.271c33.561,0 60.809,27.248 60.809,60.809c-0,33.561 -27.248,60.809 -60.809,60.809c-33.561,-0 -60.809,-27.248 -60.809,-60.809c0,-33.561 27.248,-60.809 60.809,-60.809Zm0,6.25c-30.112,0 -54.559,24.447 -54.559,54.559c0,30.112 24.447,54.559 54.559,54.559c30.112,-0 54.559,-24.447 54.559,-54.559c-0,-30.112 -24.447,-54.559 -54.559,-54.559Z" style="fill:#fff;fill-opacity:0.25;"/><circle cx="391.258" cy="464.08" r="54.559" style="fill:#fff;"/><path d="M391.258,403.271c33.561,0 60.808,27.248 60.808,60.809c0,33.561 -27.247,60.809 -60.808,60.809c-33.562,-0 -60.809,-27.248 -60.809,-60.809c-0,-33.561 27.247,-60.809 60.809,-60.809Zm-0,6.25c-30.112,0 -54.559,24.447 -54.559,54.559c-0,30.112 24.447,54.559 54.559,54.559c30.111,-0 54.558,-24.447 54.558,-54.559c0,-30.112 -24.447,-54.559 -54.558,-54.559Z" style="fill:#fff;fill-opacity:0.25;"/><circle cx="88.216" cy="594.333" r="54.559" style="fill:#fff;"/><path d="M88.216,533.524c33.562,0 60.809,27.248 60.809,60.809c0,33.561 -27.247,60.809 -60.809,60.809c-33.561,-0 -60.808,-27.248 -60.808,-60.809c-0,-33.561 27.247,-60.809 60.808,-60.809Zm0,6.25c-30.111,0 -54.558,24.447 -54.558,54.559c-0,30.112 24.447,54.559 54.558,54.559c30.112,-0 54.559,-24.447 54.559,-54.559c0,-30.112 -24.447,-54.559 -54.559,-54.559Z" style="fill:#fff;fill-opacity:0.25;"/><circle cx="240.967" cy="594.333" r="54.559" style="fill:#fff;"/><path d="M240.967,533.524c33.561,0 60.809,27.248 60.809,60.809c-0,33.561 -27.248,60.809 -60.809,60.809c-33.561,-0 -60.809,-27.248 -60.809,-60.809c0,-33.561 27.248,-60.809 60.809,-60.809Zm0,6.25c-30.112,0 -54.559,24.447 -54.559,54.559c0,30.112 24.447,54.559 54.559,54.559c30.112,-0 54.559,-24.447 54.559,-54.559c-0,-30.112 -24.447,-54.559 -54.559,-54.559Z" style="fill:#fff;fill-opacity:0.25;"/><circle cx="391.258" cy="594.333" r="54.559" style="fill:#fff;"/><path d="M391.258,533.524c33.561,0 60.808,27.248 60.808,60.809c0,33.561 -27.247,60.809 -60.808,60.809c-33.562,-0 -60.809,-27.248 -60.809,-60.809c-0,-33.561 27.247,-60.809 60.809,-60.809Zm-0,6.25c-30.112,0 -54.559,24.447 -54.559,54.559c-0,30.112 24.447,54.559 54.559,54.559c30.111,-0 54.558,-24.447 54.558,-54.559c0,-30.112 -24.447,-54.559 -54.558,-54.559Z" style="fill:#fff;fill-opacity:0.25;"/><circle cx="60.937" cy="245.031" r="27.279" style="fill:#fff;"/><path d="M60.937,211.501c18.505,0 33.529,15.024 33.529,33.53c0,18.505 -15.024,33.529 -33.529,33.529c-18.505,-0 -33.529,-15.024 -33.529,-33.529c-0,-18.506 15.024,-33.53 33.529,-33.53Zm-0,6.25c-15.056,0 -27.279,12.224 -27.279,27.28c-0,15.055 12.223,27.279 27.279,27.279c15.056,-0 27.279,-12.224 27.279,-27.279c0,-15.056 -12.223,-27.28 -27.279,-27.28Z" style="fill:#fff;fill-opacity:0.25;"/><circle cx="132.457" cy="245.031" r="27.279" style="fill:#fff;"/><path d="M132.457,211.501c18.505,0 33.529,15.024 33.529,33.53c0,18.505 -15.024,33.529 -33.529,33.529c-18.505,-0 -33.529,-15.024 -33.529,-33.529c-0,-18.506 15.024,-33.53 33.529,-33.53Zm-0,6.25c-15.056,0 -27.279,12.224 -27.279,27.28c-0,15.055 12.223,27.279 27.279,27.279c15.056,-0 27.279,-12.224 27.279,-27.279c0,-15.056 -12.223,-27.28 -27.279,-27.28Z" style="fill:#fff;fill-opacity:0.25;"/><circle cx="203.977" cy="245.031" r="27.279" style="fill:#fff;"/><path d="M203.977,211.501c18.505,0 33.529,15.024 33.529,33.53c0,18.505 -15.024,33.529 -33.529,33.529c-18.505,-0 -33.529,-15.024 -33.529,-33.529c-0,-18.506 15.024,-33.53 33.529,-33.53Zm-0,6.25c-15.056,0 -27.279,12.224 -27.279,27.28c-0,15.055 12.223,27.279 27.279,27.279c15.056,-0 27.279,-12.224 27.279,-27.279c0,-15.056 -12.223,-27.28 -27.279,-27.28Z" style="fill:#fff;fill-opacity:0.25;"/><circle cx="275.497" cy="245.031" r="27.279" style="fill:#fff;"/><path d="M275.497,211.501c18.505,0 33.529,15.024 33.529,33.53c0,18.505 -15.024,33.529 -33.529,33.529c-18.505,-0 -33.529,-15.024 -33.529,-33.529c-0,-18.506 15.024,-33.53 33.529,-33.53Zm-0,6.25c-15.056,0 -27.279,12.224 -27.279,27.28c-0,15.055 12.223,27.279 27.279,27.279c15.056,-0 27.279,-12.224 27.279,-27.279c0,-15.056 -12.223,-27.28 -27.279,-27.28Z" style="fill:#fff;fill-opacity:0.25;"/><circle cx="347.017" cy="245.031" r="27.279" style="fill:#fff;"/><path d="M347.017,211.501c18.505,0 33.529,15.024 33.529,33.53c0,18.505 -15.024,33.529 -33.529,33.529c-18.505,-0 -33.529,-15.024 -33.529,-33.529c-0,-18.506 15.024,-33.53 33.529,-33.53Zm-0,6.25c-15.056,0 -27.279,12.224 -27.279,27.28c-0,15.055 12.223,27.279 27.279,27.279c15.056,-0 27.279,-12.224 27.279,-27.279c0,-15.056 -12.223,-27.28 -27.279,-27.28Z" style="fill:#fff;fill-opacity:0.25;"/><circle cx="418.537" cy="245.031" r="27.279" style="fill:#b6007c;"/><path d="M418.537,211.501c18.505,0 33.529,15.024 33.529,33.53c0,18.505 -15.024,33.529 -33.529,33.529c-18.505,-0 -33.529,-15.024 -33.529,-33.529c-0,-18.506 15.024,-33.53 33.529,-33.53Zm-0,6.25c-15.056,0 -27.279,12.224 -27.279,27.28c-0,15.055 12.223,27.279 27.279,27.279c15.056,-0 27.279,-12.224 27.279,-27.279c0,-15.056 -12.223,-27.28 -27.279,-27.28Z" style="fill:#fff;fill-opacity:0.25;"/><circle cx="60.937" cy="341.08" r="27.279" style="fill:#b6007c;"/><path d="M60.937,307.551c18.505,-0 33.529,15.024 33.529,33.529c0,18.505 -15.024,33.529 -33.529,33.529c-18.505,0 -33.529,-15.024 -33.529,-33.529c-0,-18.505 15.024,-33.529 33.529,-33.529Zm-0,6.25c-15.056,-0 -27.279,12.223 -27.279,27.279c-0,15.056 12.223,27.279 27.279,27.279c15.056,0 27.279,-12.223 27.279,-27.279c0,-15.056 -12.223,-27.279 -27.279,-27.279Z" style="fill:#fff;fill-opacity:0.25;"/><circle cx="132.457" cy="341.08" r="27.279" style="fill:#b6007c;"/><path d="M132.457,307.551c18.505,-0 33.529,15.024 33.529,33.529c0,18.505 -15.024,33.529 -33.529,33.529c-18.505,0 -33.529,-15.024 -33.529,-33.529c-0,-18.505 15.024,-33.529 33.529,-33.529Zm-0,6.25c-15.056,-0 -27.279,12.223 -27.279,27.279c-0,15.056 12.223,27.279 27.279,27.279c15.056,0 27.279,-12.223 27.279,-27.279c0,-15.056 -12.223,-27.279 -27.279,-27.279Z" style="fill:#fff;fill-opacity:0.25;"/><circle cx="203.977" cy="341.08" r="27.279" style="fill:#b6007c;"/><path d="M203.977,307.551c18.505,-0 33.529,15.024 33.529,33.529c0,18.505 -15.024,33.529 -33.529,33.529c-18.505,0 -33.529,-15.024 -33.529,-33.529c-0,-18.505 15.024,-33.529 33.529,-33.529Zm-0,6.25c-15.056,-0 -27.279,12.223 -27.279,27.279c-0,15.056 12.223,27.279 27.279,27.279c15.056,0 27.279,-12.223 27.279,-27.279c0,-15.056 -12.223,-27.279 -27.279,-27.279Z" style="fill:#fff;fill-opacity:0.25;"/><circle cx="275.497" cy="341.08" r="27.279" style="fill:#b6007c;"/><path d="M275.497,307.551c18.505,-0 33.529,15.024 33.529,33.529c0,18.505 -15.024,33.529 -33.529,33.529c-18.505,0 -33.529,-15.024 -33.529,-33.529c-0,-18.505 15.024,-33.529 33.529,-33.529Zm-0,6.25c-15.056,-0 -27.279,12.223 -27.279,27.279c-0,15.056 12.223,27.279 27.279,27.279c15.056,0 27.279,-12.223 27.279,-27.279c0,-15.056 -12.223,-27.279 -27.279,-27.279Z" style="fill:#fff;fill-opacity:0.25;"/><circle cx="347.017" cy="341.08" r="27.279" style="fill:#b6007c;"/><path d="M347.017,307.551c18.505,-0 33.529,15.024 33.529,33.529c0,18.505 -15.024,33.529 -33.529,33.529c-18.505,0 -33.529,-15.024 -33.529,-33.529c-0,-18.505 15.024,-33.529 33.529,-33.529Zm-0,6.25c-15.056,-0 -27.279,12.223 -27.279,27.279c-0,15.056 12.223,27.279 27.279,27.279c15.056,0 27.279,-12.223 27.279,-27.279c0,-15.056 -12.223,-27.279 -27.279,-27.279Z" style="fill:#fff;fill-opacity:0.25;"/><circle cx="418.537" cy="341.08" r="27.279" style="fill:#b6007c;"/><path d="M418.537,307.551c18.505,-0 33.529,15.024 33.529,33.529c0,18.505 -15.024,33.529 -33.529,33.529c-18.505,0 -33.529,-15.024 -33.529,-33.529c-0,-18.505 15.024,-33.529 33.529,-33.529Zm-0,6.25c-15.056,-0 -27.279,12.223 -27.279,27.279c-0,15.056 12.223,27.279 27.279,27.279c15.056,0 27.279,-12.223 27.279,-27.279c0,-15.056 -12.223,-27.279 -27.279,-27.279Z" style="fill:#fff;fill-opacity:0.25;"/><path d="M418.537,313.801c15.056,-0 27.279,12.223 27.279,27.279c0,15.056 -12.223,27.279 -27.279,27.279c-15.056,0 -27.279,-12.223 -27.279,-27.279c-0,-15.056 12.223,-27.279 27.279,-27.279Zm-0,3.125c-13.331,-0 -24.154,10.823 -24.154,24.154c-0,13.331 10.823,24.154 24.154,24.154c13.331,0 24.154,-10.823 24.154,-24.154c0,-13.331 -10.823,-24.154 -24.154,-24.154Z" style="fill:#fff;"/><path d="M418.537,217.751c15.056,0 27.279,12.224 27.279,27.28c0,15.055 -12.223,27.279 -27.279,27.279c-15.056,-0 -27.279,-12.224 -27.279,-27.279c-0,-15.056 12.223,-27.28 27.279,-27.28Zm-0,3.125c-13.331,0 -24.154,10.823 -24.154,24.155c-0,13.331 10.823,24.154 24.154,24.154c13.331,-0 24.154,-10.823 24.154,-24.154c0,-13.332 -10.823,-24.155 -24.154,-24.155Z" style="fill:#fff;"/><path d="M275.497,313.801c15.056,-0 27.279,12.223 27.279,27.279c0,15.056 -12.223,27.279 -27.279,27.279c-15.056,0 -27.279,-12.223 -27.279,-27.279c-0,-15.056 12.223,-27.279 27.279,-27.279Zm-0,3.125c-13.331,-0 -24.154,10.823 -24.154,24.154c-0,13.331 10.823,24.154 24.154,24.154c13.331,0 24.154,-10.823 24.154,-24.154c0,-13.331 -10.823,-24.154 -24.154,-24.154Z" style="fill:#fff;"/><path d="M203.977,313.801c15.056,-0 27.279,12.223 27.279,27.279c0,15.056 -12.223,27.279 -27.279,27.279c-15.056,0 -27.279,-12.223 -27.279,-27.279c-0,-15.056 12.223,-27.279 27.279,-27.279Zm-0,3.125c-13.331,-0 -24.154,10.823 -24.154,24.154c-0,13.331 10.823,24.154 24.154,24.154c13.331,0 24.154,-10.823 24.154,-24.154c0,-13.331 -10.823,-24.154 -24.154,-24.154Z" style="fill:#fff;"/><path d="M132.457,313.801c15.056,-0 27.279,12.223 27.279,27.279c0,15.056 -12.223,27.279 -27.279,27.279c-15.056,0 -27.279,-12.223 -27.279,-27.279c-0,-15.056 12.223,-27.279 27.279,-27.279Zm-0,3.125c-13.331,-0 -24.154,10.823 -24.154,24.154c-0,13.331 10.823,24.154 24.154,24.154c13.331,0 24.154,-10.823 24.154,-24.154c0,-13.331 -10.823,-24.154 -24.154,-24.154Z" style="fill:#fff;"/><path d="M60.937,313.801c15.056,-0 27.279,12.223 27.279,27.279c0,15.056 -12.223,27.279 -27.279,27.279c-15.056,0 -27.279,-12.223 -27.279,-27.279c-0,-15.056 12.223,-27.279 27.279,-27.279Zm-0,3.125c-13.331,-0 -24.154,10.823 -24.154,24.154c-0,13.331 10.823,24.154 24.154,24.154c13.331,0 24.154,-10.823 24.154,-24.154c0,-13.331 -10.823,-24.154 -24.154,-24.154Z" style="fill:#fff;"/><path d="M347.017,313.801c15.056,-0 27.279,12.223 27.279,27.279c0,15.056 -12.223,27.279 -27.279,27.279c-15.056,0 -27.279,-12.223 -27.279,-27.279c-0,-15.056 12.223,-27.279 27.279,-27.279Zm-0,3.125c-13.331,-0 -24.154,10.823 -24.154,24.154c-0,13.331 10.823,24.154 24.154,24.154c13.331,0 24.154,-10.823 24.154,-24.154c0,-13.331 -10.823,-24.154 -24.154,-24.154Z" style="fill:#fff;"/><g><circle cx="51.038" cy="73.826" r="17.38" style="fill:#fff;"/><path d="M51.038,50.196c13.041,0 23.63,10.588 23.63,23.63c-0,13.042 -10.589,23.63 -23.63,23.63c-13.042,0 -23.63,-10.588 -23.63,-23.63c-0,-13.042 10.588,-23.63 23.63,-23.63Zm-0,6.25c-9.593,0 -17.38,7.788 -17.38,17.38c-0,9.592 7.787,17.38 17.38,17.38c9.592,0 17.38,-7.788 17.38,-17.38c-0,-9.592 -7.788,-17.38 -17.38,-17.38Z" style="fill:#fff;fill-opacity:0.25;"/><circle cx="104.952" cy="73.826" r="17.38" style="fill:#fff;"/><path d="M104.952,50.196c13.042,0 23.63,10.588 23.63,23.63c-0,13.042 -10.588,23.63 -23.63,23.63c-13.042,0 -23.63,-10.588 -23.63,-23.63c-0,-13.042 10.588,-23.63 23.63,-23.63Zm-0,6.25c-9.593,0 -17.38,7.788 -17.38,17.38c-0,9.592 7.787,17.38 17.38,17.38c9.592,0 17.38,-7.788 17.38,-17.38c-0,-9.592 -7.788,-17.38 -17.38,-17.38Z" style="fill:#fff;fill-opacity:0.25;"/><circle cx="158.866" cy="73.826" r="17.38" style="fill:#fff;"/><path d="M158.866,50.196c13.042,0 23.63,10.588 23.63,23.63c-0,13.042 -10.588,23.63 -23.63,23.63c-13.042,0 -23.63,-10.588 -23.63,-23.63c-0,-13.042 10.588,-23.63 23.63,-23.63Zm-0,6.25c-9.593,0 -17.38,7.788 -17.38,17.38c-0,9.592 7.787,17.38 17.38,17.38c9.592,0 17.38,-7.788 17.38,-17.38c-0,-9.592 -7.788,-17.38 -17.38,-17.38Z" style="fill:#fff;fill-opacity:0.25;"/><circle cx="212.78" cy="73.826" r="17.38" style="fill:#fff;"/><path d="M212.78,50.196c13.042,0 23.63,10.588 23.63,23.63c-0,13.042 -10.588,23.63 -23.63,23.63c-13.042,0 -23.63,-10.588 -23.63,-23.63c-0,-13.042 10.588,-23.63 23.63,-23.63Zm-0,6.25c-9.592,0 -17.38,7.788 -17.38,17.38c-0,9.592 7.788,17.38 17.38,17.38c9.592,0 17.38,-7.788 17.38,-17.38c-0,-9.592 -7.788,-17.38 -17.38,-17.38Z" style="fill:#fff;fill-opacity:0.25;"/><circle cx="266.694" cy="73.826" r="17.38" style="fill:#fff;"/><path d="M266.694,50.196c13.042,0 23.63,10.588 23.63,23.63c0,13.042 -10.588,23.63 -23.63,23.63c-13.042,0 -23.63,-10.588 -23.63,-23.63c-0,-13.042 10.588,-23.63 23.63,-23.63Zm-0,6.25c-9.592,0 -17.38,7.788 -17.38,17.38c-0,9.592 7.788,17.38 17.38,17.38c9.592,0 17.38,-7.788 17.38,-17.38c0,-9.592 -7.788,-17.38 -17.38,-17.38Z" style="fill:#fff;fill-opacity:0.25;"/><circle cx="320.608" cy="73.826" r="17.38" style="fill:#fff;"/><path d="M320.608,50.196c13.042,0 23.63,10.588 23.63,23.63c0,13.042 -10.588,23.63 -23.63,23.63c-13.042,0 -23.63,-10.588 -23.63,-23.63c-0,-13.042 10.588,-23.63 23.63,-23.63Zm0,6.25c-9.592,0 -17.38,7.788 -17.38,17.38c-0,9.592 7.788,17.38 17.38,17.38c9.592,0 17.38,-7.788 17.38,-17.38c0,-9.592 -7.788,-17.38 -17.38,-17.38Z" style="fill:#fff;fill-opacity:0.25;"/><circle cx="374.522" cy="73.826" r="17.38" style="fill:#fff;"/><path d="M374.522,50.196c13.042,0 23.63,10.588 23.63,23.63c0,13.042 -10.588,23.63 -23.63,23.63c-13.042,0 -23.63,-10.588 -23.63,-23.63c0,-13.042 10.588,-23.63 23.63,-23.63Zm0,6.25c-9.592,0 -17.38,7.788 -17.38,17.38c0,9.592 7.788,17.38 17.38,17.38c9.592,0 17.38,-7.788 17.38,-17.38c0,-9.592 -7.788,-17.38 -17.38,-17.38Z" style="fill:#fff;fill-opacity:0.25;"/><circle cx="428.436" cy="73.826" r="17.38" style="fill:#fff;"/><path d="M428.436,50.196c13.042,0 23.63,10.588 23.63,23.63c0,13.042 -10.588,23.63 -23.63,23.63c-13.042,0 -23.63,-10.588 -23.63,-23.63c0,-13.042 10.588,-23.63 23.63,-23.63Zm0,6.25c-9.592,0 -17.38,7.788 -17.38,17.38c0,9.592 7.788,17.38 17.38,17.38c9.593,0 17.38,-7.788 17.38,-17.38c0,-9.592 -7.787,-17.38 -17.38,-17.38Z" style="fill:#fff;fill-opacity:0.25;"/><circle cx="51.038" cy="139.677" r="17.38" style="fill:#fff;"/><path d="M51.038,116.047c13.041,-0 23.63,10.588 23.63,23.63c-0,13.041 -10.589,23.63 -23.63,23.63c-13.042,-0 -23.63,-10.589 -23.63,-23.63c-0,-13.042 10.588,-23.63 23.63,-23.63Zm-0,6.25c-9.593,-0 -17.38,7.787 -17.38,17.38c-0,9.592 7.787,17.38 17.38,17.38c9.592,-0 17.38,-7.788 17.38,-17.38c-0,-9.593 -7.788,-17.38 -17.38,-17.38Z" style="fill:#fff;fill-opacity:0.25;"/><circle cx="104.952" cy="139.677" r="17.38" style="fill:#fff;"/><path d="M104.952,116.047c13.042,-0 23.63,10.588 23.63,23.63c-0,13.041 -10.588,23.63 -23.63,23.63c-13.042,-0 -23.63,-10.589 -23.63,-23.63c-0,-13.042 10.588,-23.63 23.63,-23.63Zm-0,6.25c-9.593,-0 -17.38,7.787 -17.38,17.38c-0,9.592 7.787,17.38 17.38,17.38c9.592,-0 17.38,-7.788 17.38,-17.38c-0,-9.593 -7.788,-17.38 -17.38,-17.38Z" style="fill:#fff;fill-opacity:0.25;"/><circle cx="158.866" cy="139.677" r="17.38" style="fill:#fff;"/><path d="M158.866,116.047c13.042,-0 23.63,10.588 23.63,23.63c-0,13.041 -10.588,23.63 -23.63,23.63c-13.042,-0 -23.63,-10.589 -23.63,-23.63c-0,-13.042 10.588,-23.63 23.63,-23.63Zm-0,6.25c-9.593,-0 -17.38,7.787 -17.38,17.38c-0,9.592 7.787,17.38 17.38,17.38c9.592,-0 17.38,-7.788 17.38,-17.38c-0,-9.593 -7.788,-17.38 -17.38,-17.38Z" style="fill:#fff;fill-opacity:0.25;"/><circle cx="212.78" cy="139.677" r="17.38" style="fill:#fff;"/><path d="M212.78,116.047c13.042,-0 23.63,10.588 23.63,23.63c-0,13.041 -10.588,23.63 -23.63,23.63c-13.042,-0 -23.63,-10.589 -23.63,-23.63c-0,-13.042 10.588,-23.63 23.63,-23.63Zm-0,6.25c-9.592,-0 -17.38,7.787 -17.38,17.38c-0,9.592 7.788,17.38 17.38,17.38c9.592,-0 17.38,-7.788 17.38,-17.38c-0,-9.593 -7.788,-17.38 -17.38,-17.38Z" style="fill:#fff;fill-opacity:0.25;"/><circle cx="266.694" cy="139.677" r="17.38" style="fill:#fff;"/><path d="M266.694,116.047c13.042,-0 23.63,10.588 23.63,23.63c0,13.041 -10.588,23.63 -23.63,23.63c-13.042,-0 -23.63,-10.589 -23.63,-23.63c-0,-13.042 10.588,-23.63 23.63,-23.63Zm-0,6.25c-9.592,-0 -17.38,7.787 -17.38,17.38c-0,9.592 7.788,17.38 17.38,17.38c9.592,-0 17.38,-7.788 17.38,-17.38c0,-9.593 -7.788,-17.38 -17.38,-17.38Z" style="fill:#fff;fill-opacity:0.25;"/><circle cx="320.608" cy="139.677" r="17.38" style="fill:#fff;"/><path d="M320.608,116.047c13.042,-0 23.63,10.588 23.63,23.63c0,13.041 -10.588,23.63 -23.63,23.63c-13.042,-0 -23.63,-10.589 -23.63,-23.63c-0,-13.042 10.588,-23.63 23.63,-23.63Zm0,6.25c-9.592,-0 -17.38,7.787 -17.38,17.38c-0,9.592 7.788,17.38 17.38,17.38c9.592,-0 17.38,-7.788 17.38,-17.38c0,-9.593 -7.788,-17.38 -17.38,-17.38Z" style="fill:#fff;fill-opacity:0.25;"/><circle cx="374.522" cy="139.677" r="17.38" style="fill:#fff;"/><path d="M374.522,116.047c13.042,-0 23.63,10.588 23.63,23.63c0,13.041 -10.588,23.63 -23.63,23.63c-13.042,-0 -23.63,-10.589 -23.63,-23.63c0,-13.042 10.588,-23.63 23.63,-23.63Zm0,6.25c-9.592,-0 -17.38,7.787 -17.38,17.38c0,9.592 7.788,17.38 17.38,17.38c9.592,-0 17.38,-7.788 17.38,-17.38c0,-9.593 -7.788,-17.38 -17.38,-17.38Z" style="fill:#fff;fill-opacity:0.25;"/><circle cx="428.436" cy="139.677" r="17.38" style="fill:#fff;"/><path d="M428.436,116.047c13.042,-0 23.63,10.588 23.63,23.63c0,13.041 -10.588,23.63 -23.63,23.63c-13.042,-0 -23.63,-10.589 -23.63,-23.63c0,-13.042 10.588,-23.63 23.63,-23.63Zm0,6.25c-9.592,-0 -17.38,7.787 -17.38,17.38c0,9.592 7.788,17.38 17.38,17.38c9.593,-0 17.38,-7.788 17.38,-17.38c0,-9.593 -7.787,-17.38 -17.38,-17.38Z" style="fill:#fff;fill-opacity:0.25;"/></g></g><defs><radialGradient id="_Radial2" cx="0" cy="0" r="1" gradientUnits="userSpaceOnUse" gradientTransform="matrix(359.786,545.28,-791.336,522.139,124.875,257.36)"><stop offset="0" style="stop-color:#6c189e;stop-opacity:1"/><stop offset="1" style="stop-color:#508;stop-opacity:1"/></radialGradient></defs></svg>