<?xml version="1.0" encoding="UTF-8" standalone="no"?>
<!DOCTYPE svg PUBLIC "-//W3C//DTD SVG 1.1//EN" "http://www.w3.org/Graphics/SVG/1.1/DTD/svg11.dtd">
<svg width="100%" height="100%" viewBox="0 0 147 147" version="1.1" xmlns="http://www.w3.org/2000/svg" xmlns:xlink="http://www.w3.org/1999/xlink" xml:space="preserve" xmlns:serif="http://www.serif.com/" style="fill-rule:evenodd;clip-rule:evenodd;stroke-linejoin:round;stroke-miterlimit:2;">
    <g transform="matrix(1,0,0,1,-7807,-69)">
        <g id="exclamation-circle" transform="matrix(0.273281,0,0,0.347461,5673.37,44.9336)">
            <rect x="7807.44" y="69.264" width="537.908" height="423.07" style="fill:none;"/>
            <clipPath id="_clip1">
                <rect x="7807.44" y="69.264" width="537.908" height="423.07"/>
            </clipPath>
            <g clip-path="url(#_clip1)">
                <g transform="matrix(3.65923,0,0,2.87802,-13118.3,-1319.66)">
                    <path d="M5754.89,492.367C5766.05,485.853 5778.24,482.596 5791.46,482.596C5804.67,482.596 5816.86,485.853 5828.03,492.367C5839.19,498.882 5848.03,507.72 5854.54,518.882C5861.06,530.045 5864.31,542.235 5864.31,555.453C5864.31,568.671 5861.06,580.862 5854.54,592.024C5848.03,603.187 5839.19,612.025 5828.03,618.539C5816.86,625.053 5804.67,628.311 5791.46,628.311C5778.24,628.311 5766.05,625.053 5754.89,618.539C5743.72,612.025 5734.89,603.187 5728.37,592.024C5721.86,580.862 5718.6,568.671 5718.6,555.453C5718.6,542.235 5721.86,530.045 5728.37,518.882C5734.89,507.72 5743.72,498.882 5754.89,492.367ZM5803.6,600.894L5803.6,582.87C5803.6,581.984 5803.32,581.241 5802.75,580.64C5802.18,580.039 5801.48,579.739 5800.66,579.739L5782.44,579.739C5781.62,579.739 5780.9,580.055 5780.26,580.688C5779.63,581.32 5779.31,582.047 5779.31,582.87L5779.31,600.894C5779.31,601.716 5779.63,602.444 5780.26,603.076C5780.9,603.709 5781.62,604.025 5782.44,604.025L5800.66,604.025C5801.48,604.025 5802.18,603.724 5802.75,603.124C5803.32,602.523 5803.6,601.78 5803.6,600.894ZM5803.41,568.26L5805.12,509.348C5805.12,508.59 5804.8,508.02 5804.17,507.641C5803.54,507.135 5802.78,506.882 5801.89,506.882L5781.02,506.882C5780.14,506.882 5779.38,507.135 5778.74,507.641C5778.11,508.02 5777.8,508.59 5777.8,509.348L5779.41,568.26C5779.41,568.893 5779.73,569.446 5780.36,569.92C5780.99,570.395 5781.75,570.632 5782.63,570.632L5800.18,570.632C5801.07,570.632 5801.81,570.395 5802.41,569.92C5803.01,569.446 5803.35,568.893 5803.41,568.26Z" style="fill:white;fill-rule:nonzero;"/>
                </g>
            </g>
        </g>
    </g>
</svg>
